/* XPM */
static char * hide_pressed_xpm[] = {
"14 15 3 1",
" 	c None",
".	c #2A2F30",
"+	c #AA0000",
"..............",
"..............",
"..............",
"..............",
"..............",
"..............",
"..............",
"..............",
"...++++++++...",
"...++++++++...",
"..............",
"..............",
"..............",
"..............",
".............."};
