/* XPM */
static char * shade_toggled_prelight_xpm[] = {
"15 15 3 1",
" 	c None",
".	c #2A2F30",
"+	c #AA0000",
"...............",
"...............",
"...............",
"...............",
"...............",
"...............",
"...+++...+++...",
"....+++.+++....",
".....+++++.....",
"......+++......",
".......+.......",
"...............",
"...............",
"...............",
"..............."};
