/* XPM */
static char * top_right_active_xpm[] = {
"8 24 6 1",
" 	c None",
".	c #2A2F30",
"+	c #1B1F20",
"@	c #2A2A2A",
"#	c #1C1C1C",
"$	c #2B2B2B",
"+++     ",
"..@#+   ",
"....$+  ",
".....$+ ",
"......# ",
"......@+",
".......+",
".......+",
".......+",
".......+",
".......+",
".......+",
".......+",
".......+",
".......+",
".......+",
".......+",
".......+",
".......+",
".......+",
".......+",
".......+",
".......+",
".......+"};
